<svg width="33" height="32" viewBox="0 0 33 32" fill="none" xmlns="http://www.w3.org/2000/svg">
<path d="M19.1666 18.667L22.5 22.0003" stroke="#181818" stroke-width="1.5" stroke-linejoin="round"/>
<path d="M22.411 24.6999C21.6408 23.9297 21.6408 22.6809 22.411 21.9107C23.1813 21.1405 24.4301 21.1405 25.2003 21.9107L29.2557 25.9661C30.0259 26.7363 30.0259 27.9851 29.2557 28.7553C28.4855 29.5256 27.2367 29.5256 26.4665 28.7553L22.411 24.6999Z" stroke="#181818" stroke-width="1.5" stroke-linecap="round"/>
<path d="M21.8333 12.0003C21.8333 6.84567 17.6546 2.66699 12.5 2.66699C7.3453 2.66699 3.16663 6.84567 3.16663 12.0003C3.16663 17.155 7.3453 21.3337 12.5 21.3337C17.6546 21.3337 21.8333 17.155 21.8333 12.0003Z" stroke="#181818" stroke-width="1.5" stroke-linejoin="round"/>
</svg>
